:SAMPLES-PER-SECOND 30
:FULLY-SPECIFIED
:DEGREES
573
root  24.8634 35.218 31.4603 -10.7239 -64.9408 7.10492
RightUpLeg  -24.3175 3.45722 3.39386
RightLeg  56.758 -3.51989 -6.20976
RightFoot  -22.0858 -0.353157 -2.14336
RightToes  -8.3237e-009 0 -3.6325e-017
Spine  24.2459 2.08642 -2.72708
Spine1  2.10525 4.72176 -15.0756
HEad  -21.9405 -19.1271 9.9548
LeftShoulder1  -0.0959547 3.8041 -25.7501
LeftArm  -25.5814 8.97677 -22.0892
LeftForeArm  20.3541 -16.9972 -0.905946
LeftHand  -0.0440229 6.8828 -0.418582
RightShoulder  0.00205126 -3.4708 21.6339
RightArm  10.9564 15.5787 53.0892
RightForeArm  40.5711 68.9629 25.4902
RightHand  -0.101237 3.43507 -1.54997
LeftUpLeg  -28.954 1.37293 7.96315
LeftLeg  43.9788 -9.83275 -9.63266
LeftFoot  -10.2444 0.105771 -4.52527
LeftToes  -1.18267e-011 3.61711e-011 9.57411e-011
574
root  24.5262 35.1776 32.1192 -11.1002 -65.3196 7.82681
RightUpLeg  -25.5155 2.96264 2.11118
RightLeg  59.8934 -2.43024 -5.02551
RightFoot  -20.5615 -0.112591 0.345777
RightToes  -8.3237e-009 0 -3.6325e-017
Spine  24.594 2.0003 -2.38568
Spine1  3.73309 4.90766 -14.9285
HEad  -20.9613 -18.7101 9.47929
LeftShoulder1  -0.0854925 3.77035 -25.8154
LeftArm  -22.5369 9.05315 -22.5722
LeftForeArm  15.8618 -12.7868 0.37651
LeftHand  -0.0415441 7.38244 -0.186153
RightShoulder  0.0126301 -3.43305 21.3334
RightArm  10.7903 18.1226 54.4688
RightForeArm  44.3023 71.35 29.4041
RightHand  -0.140856 4.48172 -1.95755
LeftUpLeg  -28.9901 2.87524 6.8345
LeftLeg  45.7578 -9.96972 -10.3893
LeftFoot  -11.5762 0.0622328 -3.08243
LeftToes  -1.18267e-011 3.61711e-011 9.57411e-011
575
root  24.2615 35.2845 32.6628 -11.2213 -65.236 8.61853
RightUpLeg  -27.0179 0.563063 0.658073
RightLeg  62.0985 -1.3407 -3.31213
RightFoot  -18.1701 0.00867611 2.19805
RightToes  -8.3237e-009 0 -3.6325e-017
Spine  25.2814 1.71359 -2.60455
Spine1  4.01176 4.39032 -14.0807
HEad  -18.8515 -16.9468 9.08675
LeftShoulder1  -0.0924233 3.78912 -26.0538
LeftArm  -20.3499 8.31526 -23.6696
LeftForeArm  13.306 -8.00003 0.786887
LeftHand  -0.0450932 8.60138 0.135723
RightShoulder  -0.0139085 -3.52521 21.9363
RightArm  11.4681 19.1986 55.6605
RightForeArm  45.4502 71.6909 29.9951
RightHand  -0.10333 5.06923 -1.44957
LeftUpLeg  -28.9081 3.13664 5.71099
LeftLeg  46.0177 -9.8976 -10.4095
LeftFoot  -12.1572 0.0571737 -2.15903
LeftToes  -1.18267e-011 3.61711e-011 9.57411e-011
576
root  23.9591 35.5541 33.0865 -11.2974 -66.4827 9.47678
RightUpLeg  -28.1963 -1.03366 -0.220684
RightLeg  62.6827 -0.629236 -1.90079
RightFoot  -15.5867 0.0179912 3.32131
RightToes  -8.3237e-009 0 -3.6325e-017
Spine  25.469 2.13691 -2.68706
Spine1  4.17176 4.71775 -13.463
HEad  -17.8268 -16.9718 8.91468
LeftShoulder1  -0.0160116 3.55318 -25.6985
LeftArm  -20.0194 7.66144 -26.815
LeftForeArm  12.5254 -4.72865 1.03767
LeftHand  -0.0989115 8.57646 -1.82889
RightShoulder  -0.0462905 -3.63534 22.8458
RightArm  12.4774 18.6977 56.7615
RightForeArm  44.9453 70.4024 27.3367
RightHand  -0.0802694 3.78907 -1.27454
LeftUpLeg  -28.0925 4.25152 5.10502
LeftLeg  45.0691 -9.71054 -9.87716
LeftFoot  -12.3722 0.0587177 -1.71087
LeftToes  -1.18267e-011 3.61711e-011 9.57411e-011
577
root  23.6479 35.9339 33.4379 -11.105 -67.6308 9.96542
RightUpLeg  -28.9771 -3.67745 -0.976114
RightLeg  61.6732 -0.333503 -1.20708
RightFoot  -14.139 0.0168645 4.55518
RightToes  -8.3237e-009 0 -3.6325e-017
Spine  24.8592 2.42915 -3.18294
Spine1  5.55754 4.70992 -11.6821
HEad  -17.8563 -14.6549 7.26291
LeftShoulder1  -0.140218 3.93296 -26.4932
LeftArm  -18.5477 6.00246 -29.969
LeftForeArm  14.6567 -3.42001 0.201815
LeftHand  -0.115843 8.45056 -2.53167
RightShoulder  0.0417347 -3.33263 22.3888
RightArm  12.7504 17.3756 58.7915
RightForeArm  42.7295 67.0088 22.4416
RightHand  -0.0730448 3.67751 -1.18829
LeftUpLeg  -26.7585 4.82051 4.75255
LeftLeg  43.0348 -9.38498 -8.88252
LeftFoot  -12.2417 0.0610933 -1.56458
LeftToes  -1.18267e-011 3.61711e-011 9.57411e-011
578
root  23.3636 36.4118 33.7744 -11.3325 -69.1746 10.5938
RightUpLeg  -29.2959 -6.51571 -1.79056
RightLeg  59.2846 -1.16271 -2.58609
RightFoot  -14.1297 0.0443566 5.7423
RightToes  -8.3237e-009 0 -3.6325e-017
Spine  24.0673 2.46242 -2.92238
Spine1  7.19261 4.7715 -10.7162
HEad  -19.6025 -15.3366 6.97033
LeftShoulder1  -0.219824 4.16743 -26.9342
LeftArm  -17.4875 4.04349 -33.6045
LeftForeArm  18.5618 -3.83339 -0.720175
LeftHand  -0.119733 9.04273 -2.23012
RightShoulder  -0.0596224 -3.6838 22.6743
RightArm  13.9783 18.3784 59.0853
RightForeArm  34.2106 59.7761 16.3055
RightHand  -0.13373 4.51602 -1.84684
LeftUpLeg  -24.6964 5.5422 4.49789
LeftLeg  40.1739 -9.07246 -7.7481
LeftFoot  -11.6736 0.065338 -1.61647
LeftToes  -1.18267e-011 3.61711e-011 9.57411e-011
579
root  23.0617 36.8588 34.0346 -11.392 -71.0955 11.1255
RightUpLeg  -29.6288 -9.39033 -2.37295
RightLeg  56.1637 -2.9801 -5.20067
RightFoot  -13.8306 0.0178155 5.17416
RightToes  -8.3237e-009 0 -3.6325e-017
Spine  24.6436 2.23901 -3.08848
Spine1  5.8426 3.99295 -9.24342
HEad  -16.5688 -12.9943 6.64116
LeftShoulder1  -0.299006 4.38281 -27.7772
LeftArm  -16.9194 4.18124 -36.4237
LeftForeArm  22.0633 -6.06818 -1.41564
LeftHand  -0.108711 7.54547 -3.20841
RightShoulder  0.0362221 -3.35025 22.5353
RightArm  15.2806 17.3399 60.7806
RightForeArm  27.5308 50.245 11.368
RightHand  -0.159703 5.53651 -2.03139
LeftUpLeg  -22.7187 6.5488 4.56529
LeftLeg  37.2606 -8.68083 -6.66745
LeftFoot  -11.0923 0.0711129 -1.96562
LeftToes  -1.18267e-011 3.61711e-011 9.57411e-011
580
root  22.7478 37.309 34.2678 -14.0811 -73.537 14.0359
RightUpLeg  -29.6979 -11.5636 -3.69048
RightLeg  52.5387 -5.0817 -7.45271
RightFoot  -13.1692 -0.00262832 5.35149
RightToes  -8.3237e-009 0 -3.6325e-017
Spine  25.2912 2.33164 -3.51628
Spine1  4.54328 3.55251 -7.86706
HEad  -16.5486 -6.62469 2.08619
LeftShoulder1  -0.394435 4.63502 -28.7284
LeftArm  -16.117 3.54372 -39.7663
LeftForeArm  24.976 -8.69407 -2.40154
LeftHand  -0.0656534 8.1911 -0.99539
RightShoulder  0.110982 -3.08072 22.2511
RightArm  15.9624 16.361 61.8442
RightForeArm  21.4206 39.57 7.87613
RightHand  -0.154482 6.12667 -1.87787
LeftUpLeg  -20.0665 7.9813 4.19565
LeftLeg  33.9818 -8.13659 -5.50645
LeftFoot  -10.2872 0.0854208 -2.58435
LeftToes  -1.18267e-011 3.61711e-011 9.57411e-011
